<svg width="18" height="21" viewBox="0 0 18 21" fill="none" xmlns="http://www.w3.org/2000/svg">
<path d="M17.0001 6.04787L11.0001 0.787873C10.4501 0.295918 9.73803 0.023941 9.00009 0.023941C8.26216 0.023941 7.55012 0.295918 7.00009 0.787873L1.00009 6.04787C0.682463 6.33195 0.428995 6.68043 0.256567 7.07012C0.0841385 7.45981 -0.00329256 7.88175 9.47941e-05 8.30787V17.0479C9.47941e-05 17.8435 0.316165 18.6066 0.878775 19.1692C1.44138 19.7318 2.20445 20.0479 3.00009 20.0479H15.0001C15.7957 20.0479 16.5588 19.7318 17.1214 19.1692C17.684 18.6066 18.0001 17.8435 18.0001 17.0479V8.29787C18.0021 7.87344 17.9139 7.45341 17.7416 7.06555C17.5692 6.67769 17.3165 6.33083 17.0001 6.04787ZM11.0001 17.0479C11.0001 17.6002 10.5524 18.0479 10.0001 18.0479H8.00009C7.44781 18.0479 7.00009 17.6002 7.00009 17.0479V13.0479C7.00009 12.7827 7.10545 12.5283 7.29299 12.3408C7.48052 12.1532 7.73488 12.0479 8.00009 12.0479H10.0001C10.2653 12.0479 10.5197 12.1532 10.7072 12.3408C10.8947 12.5283 11.0001 12.7827 11.0001 13.0479V17.0479ZM16.0001 17.0479C16.0001 17.3131 15.8947 17.5674 15.7072 17.755C15.5197 17.9425 15.2653 18.0479 15.0001 18.0479H13.0001V13.0479C13.0001 12.2522 12.684 11.4892 12.1214 10.9266C11.5588 10.3639 10.7957 10.0479 10.0001 10.0479H8.00009C7.20444 10.0479 6.44138 10.3639 5.87877 10.9266C5.31616 11.4892 5.00009 12.2522 5.00009 13.0479V18.0479H3.00009C2.73488 18.0479 2.48052 17.9425 2.29299 17.755C2.10545 17.5674 2.00009 17.3131 2.00009 17.0479V8.29787C2.00027 8.15589 2.03069 8.01557 2.08931 7.88625C2.14794 7.75693 2.23343 7.64158 2.3401 7.54787L8.34009 2.29787C8.52258 2.13755 8.75719 2.04914 9.00009 2.04914C9.243 2.04914 9.47761 2.13755 9.66009 2.29787L15.6601 7.54787C15.7668 7.64158 15.8523 7.75693 15.9109 7.88625C15.9695 8.01557 15.9999 8.15589 16.0001 8.29787V17.0479Z" fill="#FFC700"/>
</svg>
